HIERARCHY
ROOT root
{
	OFFSET 0.000000 0.000000 0.000000
	CHANNELS 6 Xposition Yposition Zposition Zrotation Yrotation Xrotation
	JOINT lhip
	{
		OFFSET 0.058581 -0.082280 -0.017664
		CHANNELS 3 Zrotation Yrotation Xrotation
		JOINT lknee
		{
			OFFSET 0.043451 -0.386469 0.008037
			CHANNELS 3 Zrotation Yrotation Xrotation
			JOINT lankle
			{
				OFFSET -0.014790 -0.426874 -0.037428
				CHANNELS 3 Zrotation Yrotation Xrotation
				JOINT ltoe
				{
					OFFSET 0.041054 -0.060286 0.122042
					CHANNELS 3 Zrotation Yrotation Xrotation
					End Site
					{
						OFFSET 0.000000 0.000000 0.000000
					}
				}
			}
		}
	}
	JOINT rhip
	{
		OFFSET -0.060310 -0.090513 -0.013543
		CHANNELS 3 Zrotation Yrotation Xrotation
		JOINT rknee
		{
			OFFSET -0.043257 -0.383688 -0.004843
			CHANNELS 3 Zrotation Yrotation Xrotation
			JOINT rankle
			{
				OFFSET 0.019056 -0.420046 -0.034562
				CHANNELS 3 Zrotation Yrotation Xrotation
				JOINT rtoe
				{
					OFFSET -0.034840 -0.062106 0.130323
					CHANNELS 3 Zrotation Yrotation Xrotation
					End Site
					{
						OFFSET 0.000000 0.000000 0.000000
					}
				}
			}
		}
	}
	JOINT lowerback
	{
		OFFSET 0.004439 0.124404 -0.038385
		CHANNELS 3 Zrotation Yrotation Xrotation
		JOINT upperback
		{
			OFFSET 0.004488 0.137956 0.026820
			CHANNELS 3 Zrotation Yrotation Xrotation
			JOINT chest
			{
				OFFSET -0.002265 0.056032 0.002855
				CHANNELS 3 Zrotation Yrotation Xrotation
				JOINT lowerneck
				{
					OFFSET -0.013390 0.211636 -0.033468
					CHANNELS 3 Zrotation Yrotation Xrotation
					JOINT upperneck
					{
						OFFSET 0.010113 0.088937 0.050410
						CHANNELS 3 Zrotation Yrotation Xrotation
						End Site
						{
							OFFSET 0.000000 0.000000 0.000000
						}
					}
				}
				JOINT lclavicle
				{
					OFFSET 0.071702 0.114000 -0.018898
					CHANNELS 3 Zrotation Yrotation Xrotation
					JOINT lshoulder
					{
						OFFSET 0.122921 0.045205 -0.019046
						CHANNELS 3 Zrotation Yrotation Xrotation
						JOINT lelbow
						{
							OFFSET 0.255332 -0.015649 -0.022946
							CHANNELS 3 Zrotation Yrotation Xrotation
							JOINT lwrist
							{
								OFFSET 0.265709 0.012698 -0.007375
								CHANNELS 3 Zrotation Yrotation Xrotation
								End Site
								{
									OFFSET 0.000000 0.000000 0.000000
								}
							}
						}
					}
				}
				JOINT rclavicle
				{
					OFFSET -0.082954 0.112472 -0.023707
					CHANNELS 3 Zrotation Yrotation Xrotation
					JOINT rshoulder
					{
						OFFSET -0.113228 0.046853 -0.008472
						CHANNELS 3 Zrotation Yrotation Xrotation
						JOINT relbow
						{
							OFFSET -0.260127 -0.014369 -0.031269
							CHANNELS 3 Zrotation Yrotation Xrotation
							JOINT rwrist
							{
								OFFSET -0.269108 0.006794 -0.006027
								CHANNELS 3 Zrotation Yrotation Xrotation
								End Site
								{
									OFFSET 0.000000 0.000000 0.000000
								}
							}
						}
					}
				}
			}
		}
	}
}
MOTION
Frames: 17
Frame Time: 0.033333
0.323724 0.492183 0.863330 -155.774194 12.949440 97.724830 2.898428 0.964745 -10.617536 -4.197050 8.486065 99.367956 4.429128 10.177271 -11.956029 0.000000 -0.000000 0.000000 -9.119128 0.958981 -32.083912 9.188072 -3.515975 48.376991 -3.380450 -0.606063 -27.444954 0.000000 -0.000000 0.000000 8.355869 -0.614286 20.379054 7.767540 0.676712 10.532197 2.837275 -0.154159 -1.390243 -1.548183 10.017413 -12.036025 -12.099802 13.023372 -6.610446 -23.628383 -7.373507 6.347342 -59.618622 8.683957 7.120069 -9.754538 -48.979143 28.992813 8.838335 -3.844246 -4.717602 23.100846 18.810746 2.048684 37.106331 30.858460 5.136780 -71.231692 71.890907 -49.504801 6.005847 4.109943 9.396584 
0.289162 0.581629 0.862525 -154.313358 11.862132 97.319381 1.193652 -1.834967 -26.097786 -4.414479 13.264394 103.427991 5.683216 10.707810 -9.238561 0.000000 -0.000000 0.000000 -8.396209 -1.255867 -22.871881 10.641400 0.684328 47.257096 -3.836874 -3.515313 -31.812059 0.000000 -0.000000 0.000000 6.711676 4.082741 20.071512 7.842892 0.451774 10.994883 3.301448 1.168832 -0.363281 -0.141479 6.896141 -13.148136 -10.433303 10.000391 -7.056814 -23.609241 -6.385460 7.203676 -55.834936 11.305504 8.838603 -13.210846 -46.443965 32.863456 10.185209 -3.894607 -5.334972 25.172837 21.036580 3.120113 29.607679 34.462608 -0.763020 -23.055277 50.273215 -8.327963 8.826601 2.607712 15.878133 
0.244426 0.671343 0.875211 -152.642483 11.217342 96.655445 1.111160 -4.417486 -38.204959 -7.747509 17.745618 95.602394 5.710863 7.752031 -13.781798 0.000000 -0.000000 0.000000 -8.697016 -1.692595 -11.080848 11.124994 3.864891 41.864697 -0.320002 -2.004414 -29.428965 0.000000 -0.000000 0.000000 5.375673 8.514479 20.983000 7.941926 0.353123 10.585907 3.608656 3.158130 -0.022279 1.090454 5.784312 -13.643284 -8.639015 4.315613 -5.498236 -21.325286 -6.092226 7.070229 -53.755496 14.253173 12.358806 -16.495689 -48.216952 38.539673 10.449001 -4.774511 -6.606568 25.585309 23.797936 3.356947 24.483212 36.443663 -7.826020 -15.219772 19.361955 -9.485054 12.061916 -6.707306 21.393717 
0.192055 0.765105 0.895441 -150.510742 10.003396 96.338270 2.145903 -5.771299 -44.866206 -5.608702 20.320152 78.057671 6.771104 9.385398 -13.541343 0.000000 -0.000000 0.000000 -10.075507 -3.757395 0.359521 10.327252 8.070691 34.613379 5.792969 2.906508 -19.109195 0.000000 -0.000000 0.000000 3.300236 13.543112 21.813394 7.650216 0.061528 10.864580 4.189759 4.206158 -0.219048 2.423300 4.720539 -14.872342 -4.758426 -0.810116 -5.171159 -19.461084 -6.757246 7.028816 -52.173328 13.916357 15.103273 -18.253098 -50.392772 41.479364 12.931440 -5.423593 -8.036629 25.943973 22.535533 2.598716 26.191913 32.873236 -12.716217 -15.660650 4.849964 -34.669726 8.610736 -5.045716 -1.169923 
0.136884 0.862027 0.916436 -147.054316 9.321690 97.870999 3.361228 -5.124755 -47.235154 -6.489656 22.480637 53.893613 6.912701 9.187721 -12.526318 0.000000 -0.000000 0.000000 -10.350475 -6.211877 10.074059 7.251049 10.761896 25.228184 10.736500 5.858657 -3.690174 0.000000 -0.000000 0.000000 0.219601 16.832131 20.594995 7.570946 -1.894110 11.033935 4.939465 3.583502 -0.359006 3.334668 4.705591 -15.262854 0.333312 -3.383805 -6.160867 -19.076428 -6.672174 7.659279 -51.817007 11.883188 15.782852 -18.601685 -51.623729 39.834273 13.230967 -5.272617 -11.096233 28.627825 17.785314 2.055760 30.565923 28.824129 -10.857132 -15.892973 9.125777 -39.212797 9.660545 -1.201956 -14.143017 
0.081991 0.960987 0.925250 -144.457823 10.018217 99.443800 3.341008 -2.948182 -46.325284 -7.620514 20.804411 30.907681 6.778394 8.545680 -10.476010 0.000000 -0.000000 0.000000 -7.685477 -6.318923 15.514014 4.108614 10.537181 24.026811 8.245198 1.189934 -3.574365 0.000000 -0.000000 0.000000 -2.772067 16.607346 18.126701 6.967770 -3.789789 11.921950 5.432427 2.967527 -1.149901 2.944146 5.074542 -12.659019 3.791338 -1.770123 -7.526144 -19.362809 -6.932924 8.747018 -52.351420 10.470785 15.041996 -16.948444 -52.347537 37.320977 12.797249 -4.212104 -13.464520 28.931868 15.921279 3.099301 38.198620 24.480728 -4.791217 -19.459547 14.594377 -36.046073 8.387810 1.549275 -12.562549 
0.022550 1.057419 0.919881 -141.409030 11.451596 99.398879 2.799304 -0.263918 -44.548693 -6.334527 18.894972 23.109953 6.183555 5.691730 -9.031157 0.000000 -0.000000 0.000000 -5.053095 -6.005711 19.333066 4.410860 7.651796 30.904482 8.899986 1.769478 -4.419348 0.000000 -0.000000 0.000000 -3.019175 14.183548 18.184740 6.621928 -5.933943 12.411192 5.253522 1.909374 -2.094782 2.909971 5.927292 -10.521167 3.969665 0.909880 -6.957921 -21.688359 -7.824416 8.074819 -52.725914 8.998613 13.746561 -12.023834 -51.208473 30.260894 11.873989 -4.057452 -12.820351 29.150498 14.413333 3.251525 43.141901 20.247014 -2.460205 -23.531149 21.368876 -39.285544 5.020696 4.658601 -18.568367 
-0.036035 1.150150 0.904973 -139.963873 12.399563 98.578651 3.625637 0.191737 -43.183100 -4.887668 20.008658 32.823576 12.880710 9.005739 -15.309028 0.000000 -0.000000 0.000000 -4.006045 -6.280224 17.085101 6.269601 5.098736 47.230773 8.379622 -0.473565 -6.252492 0.000000 -0.000000 0.000000 -4.244526 12.462968 19.323846 6.772870 -7.090670 11.337049 5.125637 0.694716 -1.641462 3.344137 6.051045 -10.956582 3.844302 3.328477 -5.687725 -23.776835 -8.489588 6.504183 -52.412801 5.004412 11.637912 -7.790834 -48.394813 24.593496 11.456508 -2.870270 -10.430250 29.487510 11.887706 2.451299 46.335954 15.937976 -0.988859 -30.491356 29.913431 -46.294369 5.693627 6.920857 -29.486554 
-0.092859 1.237563 0.890322 -137.220659 10.163514 98.119628 4.139812 -3.331253 -42.807267 -4.557763 19.595589 46.732000 13.600628 11.256953 -21.362749 0.000000 -0.000000 0.000000 -4.823247 -4.650808 9.695886 4.007704 -2.141437 66.552223 6.023744 -5.804266 -6.778622 0.000000 -0.000000 0.000000 -7.471654 11.225838 21.550739 6.535746 -9.081039 10.814589 5.174915 -1.107176 -1.120103 4.245142 6.636012 -11.948769 3.707335 5.129172 -7.832618 -25.332546 -10.403663 4.985365 -51.090245 -0.084776 9.740104 0.009703 -46.242117 15.075969 9.989146 -2.319251 -7.090352 29.268247 9.876867 0.921074 49.168158 10.535114 2.066961 -42.492100 38.069807 -53.736843 7.737887 9.031918 -36.077338 
-0.152191 1.318539 0.884122 -135.753390 8.472635 98.139483 1.331333 -3.399602 -36.674728 -4.220609 16.859932 50.073676 15.046970 13.442056 -29.102159 0.000000 -0.000000 0.000000 -4.775864 -2.699864 -2.481107 3.920847 -3.738595 83.978490 1.726122 -8.425479 -9.335185 0.000000 -0.000000 0.000000 -8.929285 8.684195 21.582187 5.625590 -9.343765 12.020088 4.130992 -2.568710 -0.576155 3.780061 7.884382 -12.410200 3.121704 5.940464 -9.743723 -26.268083 -11.971831 3.757500 -50.854122 -6.363983 6.497812 10.365760 -44.197792 3.086990 9.590204 -1.840150 -5.080653 27.813322 7.696468 0.637392 52.280732 6.635841 3.846123 -56.536616 42.751320 -63.798792 5.745727 10.400925 -45.072373 
-0.214621 1.396800 0.889959 -133.878225 8.134236 99.487770 0.300998 -2.102682 -29.516009 -5.030531 13.032773 49.013933 13.870557 12.942626 -32.884157 0.000000 -0.000000 0.000000 -3.172320 -0.637604 -17.176140 3.931559 -5.419048 93.797846 0.384461 -5.767854 -11.174324 0.000000 -0.000000 0.000000 -9.080005 4.254211 20.805905 5.538736 -8.854991 10.015327 3.322446 -4.135337 0.101750 2.654227 8.170620 -10.074544 1.936065 8.077771 -9.821905 -26.628267 -9.917083 2.205010 -54.637453 -10.759518 4.789752 21.548223 -46.591161 -11.919083 7.722730 -1.242662 -9.032326 26.033313 3.576933 -0.962080 54.141923 5.215689 3.294526 -66.307477 44.222408 -71.671503 10.443100 12.798593 -49.026838 
-0.281956 1.477849 0.908888 -131.181963 7.580557 100.015798 0.205185 -0.243008 -19.366253 -6.669087 7.780635 43.879038 10.013224 9.950952 -31.187656 0.000000 -0.000000 0.000000 -2.333991 0.535653 -28.899596 3.795719 -7.613878 92.749905 0.343516 -3.148175 -13.246552 0.000000 -0.000000 0.000000 -9.103460 -0.093534 20.078806 5.441013 -8.525377 8.917344 2.800765 -5.814249 0.655935 2.746511 9.991217 -8.970476 0.824417 8.592995 -8.603774 -25.998824 -7.246507 1.324667 -57.984643 -13.356879 6.115262 29.373575 -51.777637 -18.859060 7.109717 -2.169544 -13.208410 25.336237 0.133129 -1.997811 52.597364 5.872833 2.433824 -66.778226 45.240257 -70.400007 12.094522 12.721095 -48.778994 
-0.353342 1.562261 0.936427 -128.322185 7.835418 100.111163 2.673475 1.822497 -8.793484 -7.861752 1.751190 37.622525 3.004665 5.276878 -22.760346 0.000000 -0.000000 0.000000 -1.521956 2.129337 -36.232128 1.949923 -10.996531 82.222607 -0.679242 -4.017243 -15.131424 0.000000 -0.000000 0.000000 -8.456503 -4.107092 18.890608 5.640720 -8.315316 9.327864 2.763928 -7.169034 0.248742 2.768168 11.950054 -7.959266 0.083686 8.624316 -7.627434 -24.479161 -5.782270 1.714221 -59.814026 -13.187873 9.009576 33.486474 -57.746184 -18.348787 6.715423 -3.869419 -15.340012 24.149831 -0.920649 -2.147260 50.641147 7.257331 1.144139 -64.492553 44.821296 -67.785270 13.088847 12.603424 -50.375894 
-0.428651 1.648604 0.963572 -126.742944 8.086999 100.250333 5.800881 2.822770 1.712363 -6.841653 -2.683542 28.608225 -5.153246 1.128864 -7.806013 0.000000 -0.000000 0.000000 -1.312523 3.778469 -39.603417 1.130853 -14.112912 64.442371 -0.812156 -4.054155 -15.079721 0.000000 -0.000000 0.000000 -7.316549 -6.846607 16.832415 5.652738 -7.598257 9.853074 2.672023 -8.048587 -0.728336 3.075478 13.228662 -6.172227 -0.450609 8.321925 -6.646385 -22.497396 -4.243008 2.175960 -61.120298 -11.942669 12.521809 32.268915 -63.100832 -12.083962 5.281333 -5.655633 -14.276877 22.432163 -2.029608 -2.513167 49.706687 8.516979 0.334969 -64.807660 43.916139 -66.714946 15.040832 12.835311 -49.363840 
-0.506244 1.733899 0.981079 -125.917849 8.212746 100.760101 9.141179 3.302784 9.795830 -5.268030 -3.493775 23.181644 -5.530447 1.864231 -2.457419 0.000000 -0.000000 0.000000 -1.256052 5.309354 -39.803567 4.008148 -14.251114 41.536113 1.000226 -5.330739 -12.200360 0.000000 -0.000000 0.000000 -6.096267 -8.742540 12.807573 5.767798 -7.005878 10.401628 2.794343 -8.527615 -1.215093 2.464060 11.874792 -2.916214 -0.608429 9.950497 -6.519279 -20.221391 -2.301019 3.814710 -62.733665 -11.228511 14.322407 23.897225 -68.596945 0.898370 4.684238 -5.823412 -12.689564 19.746823 -3.522435 -2.628861 49.295896 10.112135 0.321692 -68.858573 44.486990 -67.479930 19.556469 12.378486 -45.446070 
-0.584034 1.817491 0.983757 -124.935440 6.766289 100.753459 9.650409 1.075922 14.236284 -3.352310 -2.580514 28.432704 -4.196749 4.921482 -3.782094 0.000000 -0.000000 0.000000 -2.106230 5.449622 -37.764400 5.270953 -12.364225 20.152189 5.084329 -6.680840 -7.073429 0.000000 -0.000000 0.000000 -6.456822 -9.253220 8.690160 6.118643 -7.999174 10.761730 2.837813 -9.338974 -0.221598 2.796158 12.141595 -1.527960 -1.689516 10.687757 -5.070198 -17.775495 -0.337695 5.419777 -64.354738 -10.672356 16.098508 14.503616 -72.751227 11.107638 4.262928 -6.039967 -15.211577 18.114230 -4.733177 -3.717467 48.130658 14.150319 2.108200 -75.936388 45.369610 -70.380890 24.174200 10.971493 -39.789448 
-0.658618 1.903310 0.974158 -125.460026 5.220108 99.594645 7.909562 -0.798420 16.601291 -4.086367 -4.807194 40.596362 -5.488168 3.051550 -4.480269 0.000000 -0.000000 0.000000 -0.633565 3.473244 -35.779236 3.931240 -12.542128 9.890854 7.563053 -4.985852 -2.808366 0.000000 -0.000000 0.000000 -7.245481 -7.911049 6.930113 6.617886 -8.512981 9.353088 2.864120 -9.937085 1.200338 4.399555 11.039989 0.713369 -4.599987 11.175415 -5.041909 -16.698619 1.120715 5.670309 -64.927942 -8.186659 16.946067 3.510276 -74.802119 20.719969 3.829549 -5.696868 -16.561363 16.480315 -5.211249 -6.645405 49.283198 16.944114 5.901356 -87.026692 47.136774 -77.156375 26.475597 6.710251 -31.929564 
